<svg width="40" height="40" viewBox="0 0 100 100" fill="none" xmlns="http://www.w3.org/2000/svg">
    <g id="Bouton Map">
        <!-- Cercle blanc rapetissé (réduisez davantage la valeur du rayon si nécessaire) -->
        <circle id="Ellipse 2" cx="50" cy="50" r="45" fill="white"/>
        
        <!-- Groupe contenant l'icône, avec une transformation pour agrandir et recentrer l'icône -->
        <g id="icon-map" transform="scale(1.4) translate(-15,-13)">
            <g id="Group">
                <path id="Vector" d="M58.2783 72.4014C57.2642 72.4014 56.25 72.1891 55.4246 71.7882L43.0424 65.5853C42.3349 65.2316 40.9434 65.2551 40.2594 65.6561L34.6934 68.84C32.2877 70.208 29.8113 70.3966 27.9481 69.2882C26.0613 68.2033 25 65.9863 25 63.2033V40.2787C25 38.1325 26.4151 35.7032 28.2783 34.6419L38.4905 28.7929C40.2122 27.8023 42.8302 27.7315 44.599 28.6278L56.9812 34.8306C57.6887 35.1844 59.0566 35.1372 59.7642 34.7598L65.3066 31.5995C67.7123 30.2315 70.1887 30.0429 72.0519 31.1513C73.9387 32.2362 75 34.4532 75 37.2362V60.1844C75 62.3306 73.5849 64.7599 71.7217 65.8212L61.5095 71.6702C60.6132 72.1419 59.434 72.4014 58.2783 72.4014ZM41.7453 61.8118C42.7594 61.8118 43.7736 62.024 44.599 62.425L56.9812 68.6278C57.6887 68.9816 59.0566 68.9344 59.7642 68.557L69.9764 62.708C70.7311 62.2835 71.4623 61.0099 71.4623 60.1608V37.2127C71.4623 35.7268 71.0377 34.6183 70.2594 34.1938C69.5047 33.7693 68.3255 33.9344 67.0519 34.6655L61.5095 37.8259C59.7878 38.8164 57.1698 38.8872 55.401 37.991L43.0188 31.7881C42.3113 31.4344 40.9434 31.4815 40.2358 31.8589L30.0236 37.7079C29.2689 38.1325 28.5377 39.406 28.5377 40.2787V63.2268C28.5377 64.7127 28.9623 65.8212 29.717 66.2457C30.4717 66.6938 31.6509 66.5051 32.9481 65.774L38.4905 62.6136C39.4103 62.0712 40.5896 61.8118 41.7453 61.8118Z" fill="#292D32"/>
                <path id="Vector_2" d="M41.5601 63.7689C40.5931 63.7689 39.7912 62.967 39.7912 62V31.3397C39.7912 30.3727 40.5931 29.5708 41.5601 29.5708C42.527 29.5708 43.3289 30.3727 43.3289 31.3397V62C43.3289 62.967 42.527 63.7689 41.5601 63.7689Z" fill="#292D32"/>
                <path id="Vector_3" d="M58.4703 70.8445C57.5033 70.8445 56.7014 70.0426 56.7014 69.0756V37.5191C56.7014 36.5521 57.5033 35.7502 58.4703 35.7502C59.4373 35.7502 60.2391 36.5521 60.2391 37.5191V69.0756C60.2391 70.0426 59.4373 70.8445 58.4703 70.8445Z" fill="#292D32"/>
            </g>
        </g>
    </g>
</svg>
