<svg width="40" height="40" viewBox="0 0 100 100" fill="none" xmlns="http://www.w3.org/2000/svg">
<circle cx="50" cy="50" r="50" fill="white"/>
<path d="M42.4671 65.8369H41.3542C32.4514 65.8369 28 63.6112 28 52.4827V41.3542C28 32.4514 32.4514 28 41.3542 28H59.1598C68.0626 28 72.5141 32.4514 72.5141 41.3542V52.4827C72.5141 61.3855 68.0626 65.8369 59.1598 65.8369H58.047C57.357 65.8369 56.6893 66.1708 56.2664 66.7272L52.9279 71.1786C51.4589 73.1373 49.0551 73.1373 47.5862 71.1786L44.2476 66.7272C43.8915 66.2376 43.068 65.8369 42.4671 65.8369Z" stroke="#292D32" stroke-width="3.33855" stroke-miterlimit="10" stroke-linecap="round" stroke-linejoin="round"/>
<path d="M59.152 48.0312H59.1718" stroke="#292D32" stroke-width="4.45141" stroke-linecap="round" stroke-linejoin="round"/>
<path d="M50.2469 48.0312H50.267" stroke="#292D32" stroke-width="4.45141" stroke-linecap="round" stroke-linejoin="round"/>
<path d="M41.342 48.0312H41.362" stroke="#292D32" stroke-width="4.45141" stroke-linecap="round" stroke-linejoin="round"/>
</svg>
