<svg width="40" height="40" viewBox="0 0 100 100" fill="none" xmlns="http://www.w3.org/2000/svg">
    <g id="Bouton Notification">
        <!-- Cercle blanc avec un rayon réduit à 45 -->
        <circle id="Ellipse 3" cx="50" cy="50" r="45" fill="white"/>

        <!-- Groupe contenant l'icône "notification", avec une transformation pour agrandir l'icône -->
        <g id="&#240;&#159;&#166;&#134; icon &#34;notification&#34;" transform="scale(1.1) translate(-5,-5)">
            <g id="Group">
                <path id="Vector" d="M48.5515 66.6222C43.9008 66.6222 39.2501 65.8837 34.8389 64.4066C33.1623 63.8278 31.8848 62.6501 31.326 61.1132C30.7471 59.5763 30.9467 57.8797 31.8649 56.3627L34.1603 52.5504C34.6393 51.752 35.0784 50.1552 35.0784 49.217V43.4486C35.0784 36.0235 41.1263 29.9756 48.5515 29.9756C55.9767 29.9756 62.0246 36.0235 62.0246 43.4486V49.217C62.0246 50.1352 62.4637 51.752 62.9427 52.5703L65.2182 56.3627C66.0765 57.7998 66.2361 59.5364 65.6573 61.1132C65.0785 62.6901 63.821 63.8877 62.2441 64.4066C57.8529 65.8837 53.2022 66.6222 48.5515 66.6222ZM48.5515 32.9696C42.783 32.9696 38.0725 37.6602 38.0725 43.4486V49.217C38.0725 50.6741 37.4737 52.8298 36.7351 54.0873L34.4397 57.8996C34.0006 58.6382 33.8808 59.4166 34.1403 60.0753C34.3798 60.7539 34.9786 61.2729 35.797 61.5523C44.1403 64.3467 52.9827 64.3467 61.326 61.5523C62.0445 61.3128 62.6034 60.7739 62.8629 60.0553C63.1224 59.3368 63.0625 58.5583 62.6633 57.8996L60.3679 54.0873C59.6094 52.7899 59.0306 50.6542 59.0306 49.1971V43.4486C59.0306 37.6602 54.34 32.9696 48.5515 32.9696Z" fill="#292D32"/>
                <path id="Vector_2" d="M52.2635 33.509C52.1238 33.509 51.984 33.489 51.8443 33.4491C51.2655 33.2894 50.7066 33.1697 50.1677 33.0898C48.4711 32.8703 46.8344 32.99 45.2974 33.4491C44.7385 33.6287 44.1398 33.4491 43.7606 33.0299C43.3813 32.6108 43.2616 32.012 43.4811 31.473C44.2995 29.3772 46.2954 28 48.5709 28C50.8463 28 52.8423 29.3573 53.6607 31.473C53.8603 32.012 53.7605 32.6108 53.3812 33.0299C53.0818 33.3493 52.6627 33.509 52.2635 33.509Z" fill="#292D32"/>
                <path id="Vector_3" d="M48.5508 71.1735C46.5747 71.1735 44.6585 70.3751 43.2614 68.9779C41.8642 67.5807 41.0658 65.6645 41.0658 63.6885H44.0598C44.0598 64.8661 44.5388 66.0238 45.3771 66.8621C46.2154 67.7004 47.3731 68.1795 48.5508 68.1795C51.0258 68.1795 53.0418 66.1635 53.0418 63.6885H56.0358C56.0358 67.8202 52.6825 71.1735 48.5508 71.1735Z" fill="#292D32"/>
            </g>
        </g>
    </g>
</svg>
